PathFileType	4	(X/Y/Z)	C:\Users\Willi\Documents\Github\OpenSimMatlabBasic\ExampleData\Trials\dynamic03\marker_experimental.trc
DataRate	CameraRate	NumFrames	NumMarkers	Units	OrigDataRate	OrigDataStartFrame	OrigNumFrames
150.000000	150.000000	2	179	mm	150.000000	118	189
Frame#	Time	LFHD			LBHD			RFHD			RBHD			C7			T10			CLAV			STRN			RBAK			LSHO			LUPA			LELB			LFRA			LWRB			LWRA			LFIN			RSHO			RUPA			RELB			RFRA			RWRB			RWRA			RFIN			SACR			LASI			RASI			LT1			LT2			LT3			LS1			LS2			LS3			LTOE			RT1			RT2			RT3			RS1			RS2			RS3			RHEE			RTOE			SACO			SACA			SACL			SACP			LHEE			RM5D			LM5D			LKNE			RKNE			LANK			RANK			LKJC			RKJC			LAJC			RAJC			LTHI			RTHI			LTIB			RTIB			P_ForcePlate1			P_ForcePlate2			P_ForcePlate3			funktRKJC			funktLKJC			funktRHIP			funktLHIP			LHJC			RHJC			LKNEshank			RKNEshank			LKJCshank			RKJCshank			LHF			COP_FP1			VECTIP_FP1			RawCentreFP1			COP_FP2			VECTIP_FP2			RawCentreFP2			COP_FP3			VECTIP_FP3			RawCentreFP3			LPelvisAngles			RPelvisAngles			LFootProgressAngles			RFootProgressAngles			LHipAngles			RHipAngles			LKneeAngles			RKneeAngles			LAnkleAngles			RAnkleAngles			LFFootAngles			RFFootAngles			LAbsAnkleAngle			RAbsAnkleAngle			RNeckAngles			LNeckAngles			RSpineAngles			LSpineAngles			LShoulderAngles			LElbowAngles			LWristAngles			RShoulderAngles			RElbowAngles			RWristAngles			RThoraxAngles			LThoraxAngles			RHeadAngles			LHeadAngles			LHipPower			LKneePower			LAnklePower			RHipPower			RKneePower			RAnklePower			LWaistPower			RWaistPower			LNeckPower			RNeckPower			LShoulderPower			RShoulderPower			LElbowPower			RElbowPower			LWristPower			RWristPower			F_ForcePlate1			F_ForcePlate2			F_ForcePlate3			LHipForce			RHipForce			LKneeForce			RKneeForce			LAnkleForce			RAnkleForce			LNormalisedGRF			RNormalisedGRF			LGroundReactionForce			RGroundReactionForce			LGRF			RGRF			LWaistForce			RWaistForce			LNeckForce			RNeckForce			LShoulderForce			RShoulderForce			LElbowForce			RElbowForce			LWristForce			RWristForce			Force_FP1			RawForceFP1			Force_FP2			RawForceFP2			Force_FP3			RawForceFP3			LHipMoment			RHipMoment			LKneeMoment			RKneeMoment			LAnkleMoment			RAnkleMoment			LGroundReactionMoment			RGroundReactionMoment			LWaistMoment			RWaistMoment			LNeckMoment			RNeckMoment			LShoulderMoment			RShoulderMoment			LElbowMoment			RElbowMoment			LWristMoment			RWristMoment			RawMomentFP1			RawMomentFP2			RawMomentFP3			
		X1	Y1	Z1	X2	Y2	Z2	X3	Y3	Z3	X4	Y4	Z4	X5	Y5	Z5	X6	Y6	Z6	X7	Y7	Z7	X8	Y8	Z8	X9	Y9	Z9	X10	Y10	Z10	X11	Y11	Z11	X12	Y12	Z12	X13	Y13	Z13	X14	Y14	Z14	X15	Y15	Z15	X16	Y16	Z16	X17	Y17	Z17	X18	Y18	Z18	X19	Y19	Z19	X20	Y20	Z20	X21	Y21	Z21	X22	Y22	Z22	X23	Y23	Z23	X24	Y24	Z24	X25	Y25	Z25	X26	Y26	Z26	X27	Y27	Z27	X28	Y28	Z28	X29	Y29	Z29	X30	Y30	Z30	X31	Y31	Z31	X32	Y32	Z32	X33	Y33	Z33	X34	Y34	Z34	X35	Y35	Z35	X36	Y36	Z36	X37	Y37	Z37	X38	Y38	Z38	X39	Y39	Z39	X40	Y40	Z40	X41	Y41	Z41	X42	Y42	Z42	X43	Y43	Z43	X44	Y44	Z44	X45	Y45	Z45	X46	Y46	Z46	X47	Y47	Z47	X48	Y48	Z48	X49	Y49	Z49	X50	Y50	Z50	X51	Y51	Z51	X52	Y52	Z52	X53	Y53	Z53	X54	Y54	Z54	X55	Y55	Z55	X56	Y56	Z56	X57	Y57	Z57	X58	Y58	Z58	X59	Y59	Z59	X60	Y60	Z60	X61	Y61	Z61	X62	Y62	Z62	X63	Y63	Z63	X64	Y64	Z64	X65	Y65	Z65	X66	Y66	Z66	X67	Y67	Z67	X68	Y68	Z68	X69	Y69	Z69	X70	Y70	Z70	X71	Y71	Z71	X72	Y72	Z72	X73	Y73	Z73	X74	Y74	Z74	X75	Y75	Z75	X76	Y76	Z76	X77	Y77	Z77	X78	Y78	Z78	X79	Y79	Z79	X80	Y80	Z80	X81	Y81	Z81	X82	Y82	Z82	X83	Y83	Z83	X84	Y84	Z84	X85	Y85	Z85	X86	Y86	Z86	X87	Y87	Z87	X88	Y88	Z88	X89	Y89	Z89	X90	Y90	Z90	X91	Y91	Z91	X92	Y92	Z92	X93	Y93	Z93	X94	Y94	Z94	X95	Y95	Z95	X96	Y96	Z96	X97	Y97	Z97	X98	Y98	Z98	X99	Y99	Z99	X100	Y100	Z100	X101	Y101	Z101	X102	Y102	Z102	X103	Y103	Z103	X104	Y104	Z104	X105	Y105	Z105	X106	Y106	Z106	X107	Y107	Z107	X108	Y108	Z108	X109	Y109	Z109	X110	Y110	Z110	X111	Y111	Z111	X112	Y112	Z112	X113	Y113	Z113	X114	Y114	Z114	X115	Y115	Z115	X116	Y116	Z116	X117	Y117	Z117	X118	Y118	Z118	X119	Y119	Z119	X120	Y120	Z120	X121	Y121	Z121	X122	Y122	Z122	X123	Y123	Z123	X124	Y124	Z124	X125	Y125	Z125	X126	Y126	Z126	X127	Y127	Z127	X128	Y128	Z128	X129	Y129	Z129	X130	Y130	Z130	X131	Y131	Z131	X132	Y132	Z132	X133	Y133	Z133	X134	Y134	Z134	X135	Y135	Z135	X136	Y136	Z136	X137	Y137	Z137	X138	Y138	Z138	X139	Y139	Z139	X140	Y140	Z140	X141	Y141	Z141	X142	Y142	Z142	X143	Y143	Z143	X144	Y144	Z144	X145	Y145	Z145	X146	Y146	Z146	X147	Y147	Z147	X148	Y148	Z148	X149	Y149	Z149	X150	Y150	Z150	X151	Y151	Z151	X152	Y152	Z152	X153	Y153	Z153	X154	Y154	Z154	X155	Y155	Z155	X156	Y156	Z156	X157	Y157	Z157	X158	Y158	Z158	X159	Y159	Z159	X160	Y160	Z160	X161	Y161	Z161	X162	Y162	Z162	X163	Y163	Z163	X164	Y164	Z164	X165	Y165	Z165	X166	Y166	Z166	X167	Y167	Z167	X168	Y168	Z168	X169	Y169	Z169	X170	Y170	Z170	X171	Y171	Z171	X172	Y172	Z172	X173	Y173	Z173	X174	Y174	Z174	X175	Y175	Z175	X176	Y176	Z176	X177	Y177	Z177	X178	Y178	Z178	X179	Y179	Z179	

119	0.7866666666666667	292.5810241699219	1215.95703125	-367.7162170410156	173.0021362304688	1255.831787109375	-401.7034301757812	290.6511535644531	1224.552001953125	-254.183120727539	165.3509674072266	1280.819702148438	-236.386245727539	68.69789123535156	1127.994750976562	-304.3526916503906	38.06600570678711	972.5051879882812	-299.1756896972656	177.5791931152344	1078.173217773438	-320.7614746093749	206.5273590087891	1027.563110351562	-322.6742248535156	44.47854232788086	1051.708618164062	-215.4637298583984	88.49538421630859	1091.825561523438	-445.0110168457031	-2.377598285675049	922.2799072265625	-474.0409851074218	-22.78371238708496	861.367431640625	-492.9733886718749	-39.91163635253906	789.9371337890625	-510.7095947265624	-38.75977325439453	660.3970336914062	-521.2678833007812	15.1896276473999	663.8199462890625	-567.4520263671875	-19.01165962219238	610.9498291015625	-585.3532104492188	117.2265167236328	1110.09326171875	-179.1536560058593	106.5899200439453	1006.872497558594	-124.6378479003906	104.5780334472656	854.4976196289062	-83.58403778076166	155.8028564453125	711.714599609375	-65.38137817382808	175.9577026367188	671.6466674804688	-58.57234191894527	239.6459808349609	704.65234375	-68.98551177978511	262.5335693359375	650.2222290039062	-35.75143432617183	57.46907424926758	775.575927734375	-306.2169799804687	201.1184844970703	742.3970947265625	-404.0289916992187	183.7520751953125	736.7031860351562	-179.0400390624999	220.3525238037109	555.6871948242188	-436.8766174316406	199.9523773193359	435.5663757324219	-416.562255859375	259.3305358886719	463.6486206054688	-415.5856018066406	248.7345428466797	230.1809234619141	-414.4731750488281	163.6019744873047	141.3744659423828	-405.9583435058594	306.7136535644531	154.2868804931641	-391.8348999023438	356.0575561523438	48.41430282592776	-353.7763977050781	155.5308685302734	528.2095947265625	-143.4151153564453	119.9519119262695	417.4465637207031	-156.0177001953125	169.3473663330078	426.0675659179688	-145.6146850585937	12.80555152893066	285.462890625	-149.8356018066406	-104.0979766845703	296.6086120605469	-188.7009735107422	-11.93125629425049	190.8681640625	-158.1547088623047	-138.1078948974609	211.6246490478516	-245.9110870361328	-107.9708862304688	64.81896972656251	-217.416015625	94.09018707275391	765.6293334960938	-298.4655456542968	99.00743865966797	764.3253784179688	-298.1190185546874	94.48245239257812	765.7579345703125	-303.5478210449218	106.9995422363281	814.9070434570312	-296.2221679687499	203.6715087890625	48.79288101196291	-334.1083984375	-134.697998046875	75.87602996826173	-190.3986663818359	343.4126586914062	24.90534591674807	-388.1335144042969	254.3135528564453	394.6868591308594	-400.7874145507812	162.8103485107422	368.5843505859375	-152.2431945800781	246.819580078125	51.22708892822268	-376.1629638671875	-123.7060089111328	179.9248962402344	-195.7965087890625	251.0317535400391	392.4202270507812	-348.6946105957031	166.5278930664062	358.9020385742188	-203.9815521240234	256.1329956054688	62.80715942382815	-339.6859436035156	-101.1930236816406	166.5473480224609	-225.3347320556641	207.0150146484375	538.8507080078125	-439.3300170898437	147.9162445068359	530.12890625	-129.3899383544922	230.8595275878906	209.9918975830078	-432.8397521972656	-16.65682601928711	297.9623718261719	-143.6563110351562	-256.7200012207031	0.07899999618532701	-396.4200134277344	262.8761596679688	2.07004382793345e-14	-338.0638122558594	950.1600341796875	1.404999971389795	-394.6300048828125	0	0	0	0	0	0	0	0	0	0	0	0	150.5099792480469	680.201416015625	-347.5624084472656	142.0702209472656	677.1041259765625	-245.9792327880859	261.4744873046875	404.7024230957031	-394.7174072265625	165.1938018798828	359.9938354492188	-151.6291351318359	252.9291229248047	401.8100280761719	-343.2569580078125	169.6662902832031	352.3600463867188	-203.6490478515625	-2.385711669921875	-10.70785808563232	-0.2976931631565101	-256.7200012207031	0.07899999618532701	-396.4200134277344	-256.7201232910156	-0.2513438165187593	-396.4246215820312	-256.7200012207031	0.07899999618532701	-396.4200134277344	262.8761596679688	2.07004382793345e-14	-338.0638122558594	184.9871826171875	451.2306213378906	-315.8679809570312	254.2699890136719	-0.2560999989509441	-231.3000030517578	950.1600341796875	1.404999971389795	-394.6300048828125	950.1600341796875	1.404999971389795	-394.6300048828125	254.2699890136719	-0.2560999989509441	-231.3000030517578	14.6799783706665	3.900881052017212	-2.521808624267578	14.6799783706665	-3.900881052017212	2.521808624267578	2.748632192611694	-6.254838466644287	2.070966482162475	85.89635467529297	-3.127822637557984	7.709682941436768	33.99930191040039	-0.421339750289917	0.3012952208518982	19.79920959472656	1.335310220718383	8.576667785644531	18.19937324523926	-18.41680335998535	-3.092433214187623	59.51153564453125	-30.4096622467041	-4.791705608367922	-3.4760901927948	8.093701362609863	-0.3744585812091822	-35.74212265014648	27.42624092102051	-16.87873268127441	3.18055471858951e-15	1.987846699118444e-16	-3.727212643565142e-17	-7.951386796473776e-16	1.490885057426057e-16	7.951386796473776e-16	2.279419898986816	0	0	-27.48624610900879	0	0	21.09012222290039	9.415799140930176	5.645538806915284	21.09012222290039	-9.415799140930176	-5.645538806915284	-13.61471557617188	-11.6255407333374	5.368553161621093	-13.61471557617188	11.6255407333374	-5.368553161621093	-29.95683097839355	-18.26901435852051	-11.49545955657959	39.13324737548828	-2.25819376761284e-13	-7.951386796473914e-16	-0.6480594277381897	76.337646484375	-10.12055301666259	-10.07525539398193	-7.22851276397705	-14.60682010650635	43.56027221679688	8.248570012789336e-13	-2.782985405235551e-15	15.59969997406006	91.85755157470703	-5.491737365722651	0.4680642187595367	8.164639472961426	-0.9073570370674128	0.4680642187595367	-8.164639472961426	0.9073570370674128	-21.78493881225586	-3.538942337036132	-5.658453941345215	-21.78493881225586	3.538942337036132	5.658453941345215	0	0.006143067963421345	3.7615442591743e-19	0	0.08613905310630798	5.274495783411197e-18	0	0.1153729632496834	7.064556507593499e-18	0	0.4598153233528137	2.815556819714643e-17	0	-0.08375453948974609	-5.128486435008908e-18	0	-0.008845950476825237	-5.416582468430015e-19	0	0.1774228811264038	1.086401817334759e-17	0	0.1774228811264038	1.086401817334759e-17	0	-0.03682830929756165	-2.255083554963379e-18	0	-0.03682830929756165	-2.255083554963379e-18	0	-0.001713730278424919	-1.04935715003749e-19	0	-0.01247354224324226	-7.637841791107967e-19	0	0.01993700116872787	1.220789233293982e-18	0	-0.0157168060541153	-9.62376811349602e-19	0	0.002787279430776834	1.706716416615053e-19	0	0.001141258399002254	6.988192226690716e-20	-256.7201232910156	-0.2513438165187593	-396.4246215820312	184.9871826171875	451.2306213378906	-315.8679809570312	950.1600341796875	1.404999971389795	-394.6300048828125	-2.385711908340454	-10.70785808563232	-0.2976931631565101	0.311342865228653	1.89725649356842	-0.06588371843099583	1.821291923522949	-11.84689140319824	-0.4889793097972877	-0.3261749744415283	0.6142264604568481	-0.002896251156926117	12.13985919952393	2.747992038726807	-0.7562522292137144	-0.2548898458480835	-0.03772462159395218	-0.03326218202710152	-21.81390190124512	126.4207229614258	-6.210164546966545	0	0	0	-2.139943838119507	12.4018726348877	0.6092171072959908	0	0	0	-2.139943838119507	12.4018726348877	0.6092171072959908	0	0	0	2.910864114761353	-6.76309061050415	-0.6092253327369694	2.910864114761353	-6.76309061050415	-0.6092253327369694	0.5899050235748291	-2.444245576858521	-0.3744207918643953	0.5899050235748291	-2.444245576858521	-0.3744207918643953	0.1551989614963531	0.5194762945175171	0.1401505768299103	0.1440274864435196	0.4477967023849487	-0.1932240575551986	-0.1252119988203049	0.2198897749185562	0.0521700643002987	-0.08636799454689026	0.1922086626291275	-0.08123150467872618	0.01062340568751097	0.06322102248668671	0.04256621748209	0.02627317421138287	0.0441315658390522	-0.03552893549203873	-256.7201232910156	-0.2513438165187593	-396.4246215820312	-0.0001322387397522107	-0.3303438127040863	-0.004620724823325892	184.9871826171875	451.2306213378906	-315.8679809570312	-77.88896942138672	451.2306213378906	22.19581985473636	950.1600341796875	1.404999971389795	-394.6300048828125	-77.88896942138672	451.2306213378906	22.19581985473636	85.10456085205078	-116.0674514770508	-507.3314819335938	-134.5721435546875	29.96007347106933	61.66469573974609	730.9918823242188	-19.20646286010741	-195.0956726074219	-4.638387680053711	-7.3346962928772	40.53813171386719	-64.68467712402344	-15.90325164794922	-54.09133911132812	-18.798095703125	-1.275196194648743	-0.1081639453768731	1324.297607421875	245.5894012451172	107.0280303955078	nan	nan	nan	-481.6639099121094	-8.434152603149414	-1.231183409690857	-481.6639099121094	8.434152603149414	1.231183409690857	-216.0995330810547	-30.78512001037596	-220.5232238769531	-216.0995330810547	30.78512001037596	220.5232238769531	-5.537141799926758	-3.48896026611328	-25.02033615112305	12.13157749176025	-7.1113486289978	-37.63049697875977	-20.28208923339844	0.3624748289585117	-5.973648071289062	-11.80477905273438	-0.2242482751607889	-10.0836935043335	0.2734040915966034	-7.498987953359205e-16	-2.138401746749878	1.590572953224182	-4.666961483772047e-16	-1.968391895294189	7.805319786071777	0.6023484468460092	-15.10709571838379	48175.09765625	9014.068359375	3883.364013671875	48175.09765625	9014.068359375	3883.364013671875	
120	0.7933333333333333	300.899169921875	1217.304443359375	-367.7948303222656	181.3863983154297	1257.49462890625	-401.7574157714843	298.9325866699219	1225.686645507812	-254.240509033203	173.7504272460938	1282.177490234375	-236.3795471191405	76.83387756347656	1129.646484375	-304.7354431152343	45.9667854309082	974.1371459960938	-299.8242187499999	185.6703033447266	1079.760375976562	-320.8959960937499	214.5132751464844	1029.10498046875	-322.7431945800781	52.23923110961914	1053.380249023438	-216.0568237304687	97.04616546630859	1093.722900390625	-445.4024963378906	7.106778144836426	923.6535034179688	-475.5111083984374	-12.75467967987061	862.5167846679688	-494.6031494140624	-28.78140449523926	790.7899169921875	-512.7529907226562	-25.87976455688477	661.2716064453125	-523.7880859375	29.16982269287109	665.5435791015625	-568.6920166015625	-3.614503860473633	612.1666870117188	-587.5411987304688	124.9314880371094	1111.720825195312	-179.514663696289	114.1729507446289	1008.431335449219	-125.1168365478515	111.7674255371094	855.9358520507812	-84.71772766113276	160.9983825683594	712.4710083007812	-66.89352416992183	180.6250305175781	672.0864868164062	-60.05216217041011	244.7559509277344	704.351318359375	-70.04776000976558	266.9023132324219	649.703125	-36.76255035400386	65.20602416992188	777.0657958984375	-306.7192687988281	208.8712158203125	744.0013427734375	-404.6028137207031	191.5135040283203	738.3643798828125	-179.5138854980468	226.2542419433594	556.1951904296875	-437.1571350097656	204.1924896240234	436.3623962402344	-416.6274719238281	263.9610595703125	463.6609191894531	-415.7396545410156	250.3594818115234	230.1911773681641	-414.3289489746094	164.0105285644531	142.2793273925782	-405.16162109375	307.4455871582031	153.6372528076172	-391.8853759765625	355.775390625	48.52973937988283	-353.5933227539062	166.699462890625	530.1442260742188	-142.9203186035156	133.6292724609375	418.5639343261719	-155.6081848144531	182.7461700439453	428.3102416992188	-144.7651824951172	28.44963264465332	287.4909057617188	-149.0995788574218	-88.56673431396484	299.3711242675781	-187.2288208007812	3.412542343139648	193.0303802490234	-158.2543182373047	-123.1783828735352	214.3940582275391	-246.1863098144531	-92.84160614013672	68.29795837402345	-215.1333160400391	101.8213882446289	767.1631469726562	-298.9935913085937	106.7399368286133	765.8641357421875	-298.6468200683593	102.2133102416992	767.2904052734375	-304.0758972167968	114.6824645996094	816.4542846679688	-296.7675476074218	203.4764556884766	48.8286819458008	-333.8839721679688	-119.2830505371094	79.9504852294922	-188.207763671875	343.205810546875	25.15316963195803	-388.1323547363281	257.9884338378906	394.7954711914062	-400.8257446289062	177.5080261230469	370.6962890625	-151.3266448974609	246.2120819091797	51.34176254272463	-375.7090148925781	-108.5689926147461	182.7724609375	-195.4247131347656	254.7070617675781	392.6592407226562	-348.7274475097656	181.9116516113281	360.9920349121094	-203.0070037841797	255.8756103515625	62.85244369506838	-339.3011779785156	-86.24244689941406	169.6383209228516	-225.212646484375	212.7425537109375	539.501953125	-439.5823059082031	158.3726959228516	532.1690673828125	-129.1478118896484	231.8332977294922	210.2885894775391	-432.5527038574219	-1.058223366737366	299.8902893066406	-142.5505981445312	-256.7200012207031	0.07899999618532701	-396.4200134277344	262.7587890625	2.067159920760104e-14	-337.5928344726562	950.1600341796875	1.404999971389795	-394.6300048828125	0	0	0	0	0	0	0	0	0	0	0	0	158.3226928710938	681.7739868164062	-348.0640563964843	149.8907623291016	678.702880859375	-246.4794616699218	265.5783996582031	404.5544738769531	-394.9335327148438	181.0195617675781	361.6485290527344	-150.9219665527343	257.2675476074219	401.861328125	-343.4238891601562	185.2056427001953	354.531982421875	-203.0389556884765	-2.230960369110107	-10.51626205444336	-0.3188513517379767	-256.7200012207031	0.07899999618532701	-396.4200134277344	-256.7201232910156	-0.2513438165187593	-396.4246215820312	-256.7200012207031	0.07899999618532701	-396.4200134277344	262.7587890625	2.067159920760104e-14	-337.5928344726562	190.5277404785156	442.8928527832031	-316.05322265625	254.2699890136719	-0.2560999989509441	-231.3000030517578	950.1600341796875	1.404999971389795	-394.6300048828125	950.1600341796875	1.404999971389795	-394.6300048828125	254.2699890136719	-0.2560999989509441	-231.3000030517578	14.6236400604248	3.903185367584229	-2.502295732498169	14.6236400604248	-3.903185367584229	2.502295732498169	2.710524320602417	-6.367702960968018	2.043260812759399	85.77436065673828	-4.494350910186768	8.629263877868652	33.13460922241211	-0.4762124121189117	0.1603401452302932	21.12057876586914	0.8732939958572382	8.709593772888184	18.06941223144531	-18.71956825256348	-3.051820755004884	61.11661529541016	-29.27280426025391	-4.422977924346926	-2.7415931224823	8.33818244934082	-0.3068435490131373	-34.5706672668457	25.70508003234863	-15.20715808868408	-1.987846778527783e-15	-1.192708045940846e-15	3.540851829407152e-15	7.951386796473776e-16	-2.733289135187244e-15	1.590277359294755e-15	3.008042097091675	0	0	-26.9627513885498	0	0	21.11437034606934	9.266350746154785	5.592361927032472	21.11437034606934	-9.266350746154785	-5.592361927032472	-13.48917961120605	-11.48407459259033	5.236005783081054	-13.48917961120605	11.48407459259033	-5.236005783081054	-29.44278335571289	-17.78929901123047	-11.57240867614746	39.51669692993164	-4.579998489837034e-13	3.180554718589482e-15	-0.05721526592969894	76.83962249755859	-9.889675140380854	-10.10423469543457	-7.033168792724608	-14.50311088562012	43.03595352172852	3.020533042435991e-13	5.963540229704415e-16	15.66979598999023	91.82895660400391	-5.713507175445551	0.5625104904174805	7.996859550476074	-0.8514277338981624	0.5625104904174805	-7.996859550476074	0.8514277338981624	-21.9000358581543	-3.518589258193969	-5.548679351806641	-21.9000358581543	3.518589258193969	5.548679351806641	0	-0.04427836462855339	-2.711267875691865e-18	0	0.2410933822393417	1.476271194275096e-17	0	0.09768139570951462	5.981260429595154e-18	0	0.4407313466072083	2.698701164532101e-17	0	-0.09262984991073608	-5.671942459934134e-18	0	0.008446842432022095	5.172199273638951e-19	0	0.1945475935935974	1.191260438881096e-17	0	0.1945475935935974	1.191260438881096e-17	0	-0.03182387724518776	-1.948650470238874e-18	0	-0.03182387724518776	-1.948650470238874e-18	0	-0.001693326281383634	-1.036863305204279e-19	0	-0.01210194639861584	-7.410304960258862e-19	0	0.01867484673857689	1.143504564148279e-18	0	-0.01622391864657402	-9.934285020076966e-19	0	0.002492227591574192	1.526049271384026e-19	0	0.001393617363646626	8.533445218130071e-20	-256.7201232910156	-0.2513438165187593	-396.4246215820312	190.5277404785156	442.8928527832031	-316.05322265625	950.1600341796875	1.404999971389795	-394.6300048828125	-2.230960607528687	-10.51626205444336	-0.3188513517379767	0.2887642681598663	1.81910765171051	-0.05766461417078961	1.854929566383362	-11.60097503662109	-0.4670013785362251	-0.3097095191478729	0.5537639260292053	-0.005220332648605074	11.92470359802246	2.583230257034302	-0.738596737384796	-0.2397604733705521	-0.02091899141669273	-0.03608809784054756	-20.39789581298828	124.0083160400391	-5.974849700927726	0	0	0	-2.001033544540405	12.16521549224854	0.586132764816285	0	0	0	-2.001033544540405	12.16521549224854	0.586132764816285	0	0	0	2.836485624313354	-6.699884414672852	-0.6032812595367436	2.836485624313354	-6.699884414672852	-0.6032812595367436	0.5987557768821716	-2.492956638336182	-0.3722621202468874	0.5987557768821716	-2.492956638336182	-0.3722621202468874	0.1491109281778336	0.5072927474975586	0.1346970200538636	0.1420237421989441	0.4396525323390961	-0.1870419532060623	-0.1230433359742165	0.214921846985817	0.04993369802832605	-0.08480957895517349	0.1906542927026749	-0.08035720884799956	0.0105801448225975	0.06234809756278992	0.04126441478729249	0.02699754387140274	0.04346321895718575	-0.03635562211275101	-256.7201232910156	-0.2513438165187593	-396.4246215820312	-0.0001322387397522107	-0.3303438127040863	-0.004620724823325892	190.5277404785156	442.8928527832031	-316.05322265625	-72.23105621337891	442.8928527832031	21.53962516784671	950.1600341796875	1.404999971389795	-394.6300048828125	-72.23105621337891	442.8928527832031	21.53962516784671	43.48389434814453	-106.713150024414	-514.4556274414062	-125.173957824707	28.80369758605957	54.06189346313477	727.2830810546875	-10.3854694366455	-189.9831695556641	0.5530361533164978	-3.99895763397217	38.83455276489258	-54.94991683959961	-7.700617313385006	-54.2579231262207	-17.96074295043945	-1.94711709022522	0.1796475201845168	1294.542846679688	227.2931213378906	105.5470428466797	nan	nan	nan	-518.8148803710938	-15.27254962921142	-25.69180679321289	-518.8148803710938	15.27254962921142	25.69180679321289	-257.9606018066406	-30.87335968017577	-232.8920288085938	-257.9606018066406	30.87335968017577	232.8920288085938	-5.294313430786133	-3.395395040512084	-23.98517227172852	11.62436866760254	-7.230768680572507	-37.15310668945312	-19.50574684143066	0.3293600082397464	-5.735437393188477	-12.16814041137695	-0.2283407598733896	-10.35064029693604	0.3248272836208344	2.228255925499407e-16	-2.040664911270142	1.660576820373535	-4.123017049214609e-16	-2.057544469833374	7.805319786071777	0.6023484468460092	-15.10709571838379	47076.33984375	8092.39697265625	3759.6337890625	47076.33984375	8092.39697265625	3759.6337890625	
